<svg version="1.1" id="Layer_1" xmlns="http://www.w3.org/2000/svg" xmlns:xlink="http://www.w3.org/1999/xlink" x="0px" y="0px"
	 width="100%" viewBox="0 0 512 512" enable-background="new 0 0 512 512" xml:space="preserve">
<path fill="#FEFF99" opacity="1.000000" stroke="none" 
	d="
M278.000000,513.000000 
	C185.355820,513.000000 93.211639,513.000000 1.033728,513.000000 
	C1.033728,342.397461 1.033728,171.794907 1.033728,1.096182 
	C171.560867,1.096182 342.121796,1.096182 512.841370,1.096182 
	C512.841370,171.666550 512.841370,342.333252 512.841370,513.000000 
	C434.794891,513.000000 356.647430,513.000000 278.000000,513.000000 
M226.809204,469.000336 
	C247.142532,469.000336 267.475861,469.005341 287.809204,468.997467 
	C294.372101,468.994934 297.025024,467.134796 298.103302,460.724213 
	C300.567261,446.075684 302.746887,431.379028 304.994446,416.694641 
	C305.587006,412.823212 306.384308,409.615692 311.090668,408.343781 
	C315.844452,407.059052 320.533508,405.043640 324.794586,402.564117 
	C329.114960,400.050140 332.020050,400.876526 335.681335,403.903473 
	C345.896637,412.348969 356.422333,420.422791 366.913727,428.529114 
	C372.528534,432.867493 377.300995,433.233734 382.801666,429.109894 
	C389.264679,424.264526 395.685303,419.236969 401.420044,413.575073 
	C410.148712,404.957367 418.359100,395.805817 426.623993,386.730133 
	C432.998383,379.730438 433.861206,373.689819 427.381927,366.179688 
	C418.647369,356.055420 410.810944,345.145599 402.829102,334.394653 
	C401.694336,332.866241 401.047150,330.028656 401.652863,328.321625 
	C404.086823,321.461884 407.035065,314.778839 409.979065,308.112579 
	C410.392212,307.177094 411.764862,306.241486 412.815277,306.075012 
	C427.816132,303.697449 442.827301,301.378296 457.859161,299.205688 
	C465.653015,298.079224 469.277924,294.363800 469.125946,286.512756 
	C468.745392,266.853516 469.011414,247.181946 468.994690,227.515350 
	C468.988373,220.097595 466.034576,217.133163 458.795654,216.112534 
	C444.069946,214.036301 429.394409,211.605972 414.677124,209.466782 
	C411.847198,209.055450 410.441498,207.770264 409.431763,205.125198 
	C406.830841,198.312073 403.741241,191.684036 401.201233,184.850342 
	C400.655365,183.381683 401.015472,180.918610 401.956055,179.658295 
	C410.085602,168.765274 418.366486,157.982162 426.762390,147.292038 
	C431.802948,140.874084 431.976715,135.396866 426.802338,129.144073 
	C423.746704,125.451599 420.847137,121.588402 417.465179,118.215233 
	C406.515411,107.293922 395.402161,96.535751 384.295868,85.772537 
	C379.328705,80.958824 373.635223,80.733963 368.167908,84.871819 
	C356.398376,93.779427 344.675629,102.752235 332.743774,111.437469 
	C331.299835,112.488518 328.451416,112.613533 326.656647,111.996429 
	C320.564362,109.901665 314.580872,107.438370 308.721130,104.754906 
	C307.191559,104.054443 305.440491,102.177925 305.184448,100.613480 
	C302.676117,85.290062 300.376709,69.930511 298.205536,54.554741 
	C297.252319,47.804211 294.377960,45.014355 287.381500,45.007130 
	C266.881561,44.985962 246.381607,44.991741 225.881668,45.004162 
	C219.528137,45.008011 216.801620,47.333355 215.832077,53.576836 
	C213.527359,68.418571 211.263626,83.266685 208.949371,98.106926 
	C208.397385,101.646568 207.309616,104.400955 203.089523,105.580727 
	C198.183899,106.952156 193.371567,109.058044 188.931213,111.573288 
	C184.991364,113.805008 182.246918,113.361839 178.804108,110.593353 
	C168.084167,101.973061 157.134659,93.635605 146.195404,85.291710 
	C140.525894,80.967308 137.056427,80.883820 131.296570,84.774597 
	C128.558975,86.623833 125.739128,88.492752 123.442909,90.830482 
	C110.570824,103.935280 97.640656,116.995026 85.176666,130.482620 
	C80.346054,135.709961 81.101669,140.738083 85.417542,146.198990 
	C94.246559,157.370407 102.857452,168.715042 111.758026,179.828278 
	C113.508224,182.013580 113.590706,183.519135 112.450111,185.986160 
	C109.606064,192.137512 107.330658,198.551605 104.492355,204.705887 
	C103.838524,206.123581 101.960320,207.642838 100.443771,207.893265 
	C85.461380,210.367218 70.432480,212.557983 55.425404,214.884720 
	C48.919296,215.893448 45.060669,219.220505 45.039906,224.208832 
	C44.951111,245.541733 44.951527,266.875427 45.039093,288.208344 
	C45.060566,293.438782 48.298168,296.980591 53.440678,297.733307 
	C68.483162,299.935120 83.527824,302.128998 98.597084,304.134888 
	C101.607605,304.535614 103.301743,305.663605 104.411041,308.554565 
	C107.079712,315.509521 110.235519,322.279205 112.835411,329.257538 
	C113.374382,330.704193 112.920349,333.154907 111.966980,334.423981 
	C103.700569,345.427856 95.225182,356.274994 86.791725,367.153046 
	C82.053070,373.265259 81.736992,379.138245 86.903656,384.530640 
	C100.910973,399.150024 115.085007,413.615906 129.456696,427.876801 
	C135.096420,433.473022 139.927917,433.407776 146.243637,428.683044 
	C157.657303,420.144623 169.059525,411.589386 180.361221,402.904114 
	C182.882034,400.966919 184.912476,400.485992 187.963684,402.003754 
	C193.283569,404.649963 199.012421,406.468018 204.368256,409.051147 
	C206.210571,409.939728 208.501587,411.899414 208.800995,413.671600 
	C211.387390,428.980865 213.636948,444.348907 215.830765,459.721741 
	C216.726578,465.998962 219.233673,468.505646 226.809204,469.000336 
z"/>
<path fill="#FF9900" opacity="1.000000" stroke="none" 
	d="
M226.353363,469.000183 
	C219.233673,468.505646 216.726578,465.998962 215.830765,459.721741 
	C213.636948,444.348907 211.387390,428.980865 208.800995,413.671600 
	C208.501587,411.899414 206.210571,409.939728 204.368256,409.051147 
	C199.012421,406.468018 193.283569,404.649963 187.963684,402.003754 
	C184.912476,400.485992 182.882034,400.966919 180.361221,402.904114 
	C169.059525,411.589386 157.657303,420.144623 146.243637,428.683044 
	C139.927917,433.407776 135.096420,433.473022 129.456696,427.876801 
	C115.085007,413.615906 100.910973,399.150024 86.903656,384.530640 
	C81.736992,379.138245 82.053070,373.265259 86.791725,367.153046 
	C95.225182,356.274994 103.700569,345.427856 111.966980,334.423981 
	C112.920349,333.154907 113.374382,330.704193 112.835411,329.257538 
	C110.235519,322.279205 107.079712,315.509521 104.411041,308.554565 
	C103.301743,305.663605 101.607605,304.535614 98.597084,304.134888 
	C83.527824,302.128998 68.483162,299.935120 53.440678,297.733307 
	C48.298168,296.980591 45.060566,293.438782 45.039093,288.208344 
	C44.951527,266.875427 44.951111,245.541733 45.039906,224.208832 
	C45.060669,219.220505 48.919296,215.893448 55.425404,214.884720 
	C70.432480,212.557983 85.461380,210.367218 100.443771,207.893265 
	C101.960320,207.642838 103.838524,206.123581 104.492355,204.705887 
	C107.330658,198.551605 109.606064,192.137512 112.450111,185.986160 
	C113.590706,183.519135 113.508224,182.013580 111.758026,179.828278 
	C102.857452,168.715042 94.246559,157.370407 85.417542,146.198990 
	C81.101669,140.738083 80.346054,135.709961 85.176666,130.482620 
	C97.640656,116.995026 110.570824,103.935280 123.442909,90.830482 
	C125.739128,88.492752 128.558975,86.623833 131.296570,84.774597 
	C137.056427,80.883820 140.525894,80.967308 146.195404,85.291710 
	C157.134659,93.635605 168.084167,101.973061 178.804108,110.593353 
	C182.246918,113.361839 184.991364,113.805008 188.931213,111.573288 
	C193.371567,109.058044 198.183899,106.952156 203.089523,105.580727 
	C207.309616,104.400955 208.397385,101.646568 208.949371,98.106926 
	C211.263626,83.266685 213.527359,68.418571 215.832077,53.576836 
	C216.801620,47.333355 219.528137,45.008011 225.881668,45.004162 
	C246.381607,44.991741 266.881561,44.985962 287.381500,45.007130 
	C294.377960,45.014355 297.252319,47.804211 298.205536,54.554741 
	C300.376709,69.930511 302.676117,85.290062 305.184448,100.613480 
	C305.440491,102.177925 307.191559,104.054443 308.721130,104.754906 
	C314.580872,107.438370 320.564362,109.901665 326.656647,111.996429 
	C328.451416,112.613533 331.299835,112.488518 332.743774,111.437469 
	C344.675629,102.752235 356.398376,93.779427 368.167908,84.871819 
	C373.635223,80.733963 379.328705,80.958824 384.295868,85.772537 
	C395.402161,96.535751 406.515411,107.293922 417.465179,118.215233 
	C420.847137,121.588402 423.746704,125.451599 426.802338,129.144073 
	C431.976715,135.396866 431.802948,140.874084 426.762390,147.292038 
	C418.366486,157.982162 410.085602,168.765274 401.956055,179.658295 
	C401.015472,180.918610 400.655365,183.381683 401.201233,184.850342 
	C403.741241,191.684036 406.830841,198.312073 409.431763,205.125198 
	C410.441498,207.770264 411.847198,209.055450 414.677124,209.466782 
	C429.394409,211.605972 444.069946,214.036301 458.795654,216.112534 
	C466.034576,217.133163 468.988373,220.097595 468.994690,227.515350 
	C469.011414,247.181946 468.745392,266.853516 469.125946,286.512756 
	C469.277924,294.363800 465.653015,298.079224 457.859161,299.205688 
	C442.827301,301.378296 427.816132,303.697449 412.815277,306.075012 
	C411.764862,306.241486 410.392212,307.177094 409.979065,308.112579 
	C407.035065,314.778839 404.086823,321.461884 401.652863,328.321625 
	C401.047150,330.028656 401.694336,332.866241 402.829102,334.394653 
	C410.810944,345.145599 418.647369,356.055420 427.381927,366.179688 
	C433.861206,373.689819 432.998383,379.730438 426.623993,386.730133 
	C418.359100,395.805817 410.148712,404.957367 401.420044,413.575073 
	C395.685303,419.236969 389.264679,424.264526 382.801666,429.109894 
	C377.300995,433.233734 372.528534,432.867493 366.913727,428.529114 
	C356.422333,420.422791 345.896637,412.348969 335.681335,403.903473 
	C332.020050,400.876526 329.114960,400.050140 324.794586,402.564117 
	C320.533508,405.043640 315.844452,407.059052 311.090668,408.343781 
	C306.384308,409.615692 305.587006,412.823212 304.994446,416.694641 
	C302.746887,431.379028 300.567261,446.075684 298.103302,460.724213 
	C297.025024,467.134796 294.372101,468.994934 287.809204,468.997467 
	C267.475861,469.005341 247.142532,469.000336 226.353363,469.000183 
M326.786438,267.011047 
	C326.818024,265.845337 326.792511,264.674896 326.889526,263.514648 
	C329.258972,235.178207 317.609314,213.380630 294.698608,197.745285 
	C271.741028,182.077927 238.552399,183.299255 216.724289,199.655212 
	C193.738495,216.878647 183.622253,239.647873 187.469650,267.711731 
	C191.815887,299.414368 219.791245,324.993073 251.178406,327.012482 
	C276.260559,328.626221 296.394989,319.490112 312.213562,300.105194 
	C319.959991,290.612244 324.349670,279.748901 326.786438,267.011047 
z"/>
<path fill="#FEFF98" opacity="1.000000" stroke="none" 
	d="
M326.752075,267.458069 
	C324.349670,279.748901 319.959991,290.612244 312.213562,300.105194 
	C296.394989,319.490112 276.260559,328.626221 251.178406,327.012482 
	C219.791245,324.993073 191.815887,299.414368 187.469650,267.711731 
	C183.622253,239.647873 193.738495,216.878647 216.724289,199.655212 
	C238.552399,183.299255 271.741028,182.077927 294.698608,197.745285 
	C317.609314,213.380630 329.258972,235.178207 326.889526,263.514648 
	C326.792511,264.674896 326.818024,265.845337 326.752075,267.458069 
z"/>
</svg>